<mxfile host="app.diagrams.net" modified="2020-10-23T02:44:25.719Z" agent="5.0 (Windows NT 10.0; Win64; x64) AppleWebKit/537.36 (KHTML, like Gecko) Chrome/86.0.4240.111 Safari/537.36" etag="ySxe2SxntFG2EVZfLSQc" version="13.8.1" type="github">
  <diagram id="prtHgNgQTEPvFCAcTncT" name="Page-1">
    <mxGraphModel dx="1185" dy="635" grid="1" gridSize="10" guides="1" tooltips="1" connect="1" arrows="1" fold="1" page="1" pageScale="1" pageWidth="1169" pageHeight="827" math="0" shadow="0">
      <root>
        <mxCell id="0" />
        <mxCell id="1" parent="0" />
        <mxCell id="6wfV50ZJQf9QE-TnQ756-29" value="ERP" style="swimlane;html=1;childLayout=stackLayout;resizeParent=1;resizeParentMax=0;horizontal=0;startSize=20;horizontalStack=0;direction=east;" vertex="1" parent="1">
          <mxGeometry x="275" y="190" width="640" height="550" as="geometry" />
        </mxCell>
        <mxCell id="6wfV50ZJQf9QE-TnQ756-30" value="" style="edgeStyle=orthogonalEdgeStyle;rounded=0;orthogonalLoop=1;jettySize=auto;html=1;dashed=1;endArrow=none;endFill=0;exitX=0.5;exitY=1;exitDx=0;exitDy=0;" edge="1" parent="6wfV50ZJQf9QE-TnQ756-29" source="6wfV50ZJQf9QE-TnQ756-40">
          <mxGeometry relative="1" as="geometry">
            <mxPoint x="85" y="240" as="targetPoint" />
            <Array as="points">
              <mxPoint x="320" y="130" />
              <mxPoint x="85" y="130" />
            </Array>
          </mxGeometry>
        </mxCell>
        <mxCell id="6wfV50ZJQf9QE-TnQ756-32" style="edgeStyle=orthogonalEdgeStyle;rounded=0;orthogonalLoop=1;jettySize=auto;html=1;endArrow=classic;endFill=1;" edge="1" parent="6wfV50ZJQf9QE-TnQ756-29" source="6wfV50ZJQf9QE-TnQ756-45" target="6wfV50ZJQf9QE-TnQ756-48">
          <mxGeometry relative="1" as="geometry" />
        </mxCell>
        <mxCell id="6wfV50ZJQf9QE-TnQ756-33" style="edgeStyle=orthogonalEdgeStyle;rounded=0;orthogonalLoop=1;jettySize=auto;html=1;endArrow=classic;endFill=1;" edge="1" parent="6wfV50ZJQf9QE-TnQ756-29" source="6wfV50ZJQf9QE-TnQ756-44" target="6wfV50ZJQf9QE-TnQ756-49">
          <mxGeometry relative="1" as="geometry">
            <Array as="points">
              <mxPoint x="180" y="340" />
              <mxPoint x="400" y="340" />
            </Array>
          </mxGeometry>
        </mxCell>
        <mxCell id="6wfV50ZJQf9QE-TnQ756-34" value="系统管理" style="swimlane;html=1;startSize=20;horizontal=0;direction=east;" vertex="1" parent="6wfV50ZJQf9QE-TnQ756-29">
          <mxGeometry x="20" width="620" height="120" as="geometry">
            <mxRectangle x="20" width="600" height="20" as="alternateBounds" />
          </mxGeometry>
        </mxCell>
        <mxCell id="6wfV50ZJQf9QE-TnQ756-35" value="" style="edgeStyle=orthogonalEdgeStyle;rounded=0;orthogonalLoop=1;jettySize=auto;html=1;" edge="1" parent="6wfV50ZJQf9QE-TnQ756-34" source="6wfV50ZJQf9QE-TnQ756-36" target="6wfV50ZJQf9QE-TnQ756-38">
          <mxGeometry relative="1" as="geometry" />
        </mxCell>
        <mxCell id="6wfV50ZJQf9QE-TnQ756-41" value="退出" style="ellipse;whiteSpace=wrap;html=1;" vertex="1" parent="6wfV50ZJQf9QE-TnQ756-34">
          <mxGeometry x="505" y="40" width="40" height="40" as="geometry" />
        </mxCell>
        <mxCell id="6wfV50ZJQf9QE-TnQ756-36" value="Admin登录" style="ellipse;whiteSpace=wrap;html=1;" vertex="1" parent="6wfV50ZJQf9QE-TnQ756-34">
          <mxGeometry x="40" y="40" width="40" height="40" as="geometry" />
        </mxCell>
        <mxCell id="6wfV50ZJQf9QE-TnQ756-37" style="edgeStyle=orthogonalEdgeStyle;rounded=0;orthogonalLoop=1;jettySize=auto;html=1;entryX=0;entryY=0.5;entryDx=0;entryDy=0;" edge="1" parent="6wfV50ZJQf9QE-TnQ756-34" source="6wfV50ZJQf9QE-TnQ756-38" target="6wfV50ZJQf9QE-TnQ756-40">
          <mxGeometry relative="1" as="geometry" />
        </mxCell>
        <mxCell id="6wfV50ZJQf9QE-TnQ756-38" value="创建角色" style="rounded=0;whiteSpace=wrap;html=1;fontFamily=Helvetica;fontSize=12;fontColor=#000000;align=center;" vertex="1" parent="6wfV50ZJQf9QE-TnQ756-34">
          <mxGeometry x="120" y="30" width="80" height="60" as="geometry" />
        </mxCell>
        <mxCell id="6wfV50ZJQf9QE-TnQ756-39" value="" style="edgeStyle=orthogonalEdgeStyle;rounded=0;orthogonalLoop=1;jettySize=auto;html=1;endArrow=classic;endFill=1;exitX=1;exitY=0.5;exitDx=0;exitDy=0;" edge="1" parent="6wfV50ZJQf9QE-TnQ756-34" source="6wfV50ZJQf9QE-TnQ756-50" target="6wfV50ZJQf9QE-TnQ756-41">
          <mxGeometry relative="1" as="geometry">
            <mxPoint x="395" y="50" as="sourcePoint" />
          </mxGeometry>
        </mxCell>
        <mxCell id="6wfV50ZJQf9QE-TnQ756-51" value="" style="edgeStyle=orthogonalEdgeStyle;rounded=0;orthogonalLoop=1;jettySize=auto;html=1;" edge="1" parent="6wfV50ZJQf9QE-TnQ756-34" source="6wfV50ZJQf9QE-TnQ756-40" target="6wfV50ZJQf9QE-TnQ756-50">
          <mxGeometry relative="1" as="geometry" />
        </mxCell>
        <mxCell id="6wfV50ZJQf9QE-TnQ756-50" value="授权" style="rounded=0;whiteSpace=wrap;html=1;fontFamily=Helvetica;fontSize=12;fontColor=#000000;align=center;" vertex="1" parent="6wfV50ZJQf9QE-TnQ756-34">
          <mxGeometry x="385" y="30" width="80" height="60" as="geometry" />
        </mxCell>
        <mxCell id="6wfV50ZJQf9QE-TnQ756-40" value="创建User" style="rounded=0;whiteSpace=wrap;html=1;fontFamily=Helvetica;fontSize=12;fontColor=#000000;align=center;" vertex="1" parent="6wfV50ZJQf9QE-TnQ756-34">
          <mxGeometry x="260" y="30" width="80" height="60" as="geometry" />
        </mxCell>
        <mxCell id="6wfV50ZJQf9QE-TnQ756-42" value="成本系统" style="swimlane;html=1;startSize=20;horizontal=0;" vertex="1" parent="6wfV50ZJQf9QE-TnQ756-29">
          <mxGeometry x="20" y="120" width="620" height="290" as="geometry" />
        </mxCell>
        <mxCell id="6wfV50ZJQf9QE-TnQ756-43" value="" style="edgeStyle=orthogonalEdgeStyle;rounded=0;orthogonalLoop=1;jettySize=auto;html=1;endArrow=classic;endFill=1;" edge="1" parent="6wfV50ZJQf9QE-TnQ756-42" source="6wfV50ZJQf9QE-TnQ756-44" target="6wfV50ZJQf9QE-TnQ756-45">
          <mxGeometry relative="1" as="geometry" />
        </mxCell>
        <mxCell id="6wfV50ZJQf9QE-TnQ756-44" value="" style="rounded=0;whiteSpace=wrap;html=1;fontFamily=Helvetica;fontSize=12;fontColor=#000000;align=center;" vertex="1" parent="6wfV50ZJQf9QE-TnQ756-42">
          <mxGeometry x="120" y="30" width="80" height="60" as="geometry" />
        </mxCell>
        <mxCell id="6wfV50ZJQf9QE-TnQ756-45" value="" style="rhombus;whiteSpace=wrap;html=1;fontFamily=Helvetica;fontSize=12;fontColor=#000000;align=center;" vertex="1" parent="6wfV50ZJQf9QE-TnQ756-42">
          <mxGeometry x="260" y="40" width="40" height="40" as="geometry" />
        </mxCell>
        <mxCell id="6wfV50ZJQf9QE-TnQ756-52" value="User 登录" style="ellipse;whiteSpace=wrap;html=1;" vertex="1" parent="6wfV50ZJQf9QE-TnQ756-42">
          <mxGeometry x="45" y="125" width="40" height="40" as="geometry" />
        </mxCell>
        <mxCell id="6wfV50ZJQf9QE-TnQ756-46" value="项目主数据" style="swimlane;html=1;startSize=20;horizontal=0;" vertex="1" parent="6wfV50ZJQf9QE-TnQ756-29">
          <mxGeometry x="20" y="410" width="620" height="140" as="geometry" />
        </mxCell>
        <mxCell id="6wfV50ZJQf9QE-TnQ756-47" value="" style="edgeStyle=orthogonalEdgeStyle;rounded=0;orthogonalLoop=1;jettySize=auto;html=1;endArrow=classic;endFill=1;" edge="1" parent="6wfV50ZJQf9QE-TnQ756-46" source="6wfV50ZJQf9QE-TnQ756-48" target="6wfV50ZJQf9QE-TnQ756-49">
          <mxGeometry relative="1" as="geometry" />
        </mxCell>
        <mxCell id="6wfV50ZJQf9QE-TnQ756-48" value="" style="rounded=0;whiteSpace=wrap;html=1;fontFamily=Helvetica;fontSize=12;fontColor=#000000;align=center;" vertex="1" parent="6wfV50ZJQf9QE-TnQ756-46">
          <mxGeometry x="240" y="20" width="80" height="60" as="geometry" />
        </mxCell>
        <mxCell id="6wfV50ZJQf9QE-TnQ756-49" value="" style="rhombus;whiteSpace=wrap;html=1;fontFamily=Helvetica;fontSize=12;fontColor=#000000;align=center;" vertex="1" parent="6wfV50ZJQf9QE-TnQ756-46">
          <mxGeometry x="360" y="30" width="40" height="40" as="geometry" />
        </mxCell>
      </root>
    </mxGraphModel>
  </diagram>
</mxfile>
